<svg width="210mm" height="297mm" viewBox="0 0 185.231 87.481" xmlns="http://www.w3.org/2000/svg"><path style="fill:#207178;fill-opacity:1;stroke-width:.0879539" d="M1.506 87.373c-.534-.19-.956-.58-1.242-1.15L0 85.699v-6.816c0-7.587-.039-7.093.608-7.808.174-.193.524-.445.778-.56l.46-.208 90.417-.023c64.46-.016 90.55.004 90.878.072a2.355 2.355 0 0 1 1.553 1.14l.273.482v13.897l-.19.356c-.238.442-.659.862-1.076 1.07-.305.15-3.944.158-91.086.175-77.022.016-90.82 0-91.109-.103zm9.71-3.56c.382-.091.736-.192.786-.223.06-.037.091-.88.091-2.426v-2.37H9.894v3.362l-.945-.036c-1.27-.048-1.756-.307-2.284-1.215-.472-.81-.508-2.522-.075-3.488.468-1.042 1.092-1.385 2.513-1.38.777.004 1.023.04 1.55.238.344.128.647.233.673.233.026 0 .166-.327.312-.726.145-.4.29-.79.32-.867.043-.106-.047-.185-.366-.322-.865-.37-1.52-.49-2.709-.497-1.334-.007-1.97.16-2.858.755-1.36.908-2.025 2.303-2.022 4.248.004 2.709 1.372 4.498 3.737 4.89.684.114 2.687.012 3.475-.176zm28.171.174c1.98-.324 3.08-1.894 2.932-4.18-.102-1.572-.692-2.596-1.784-3.096-.735-.336-1.915-.366-2.693-.067-.143.055-.154-.063-.154-1.71 0-2.004.08-1.836-.797-1.687-.263.045-.667.107-.897.137l-.418.056.022 5.108.023 5.108.484.125c.967.25 2.447.343 3.282.206zm-1.699-3.646v-1.885l.33-.11c.778-.26 1.562-.054 1.883.496.384.66.36 2.097-.048 2.7-.352.522-.698.683-1.474.683h-.69zm42.422 3.5c.3-.08.575-.175.613-.208.061-.054-.02-.802-.163-1.505l-.047-.23-.587.164c-.878.243-1.959.22-2.547-.053-.46-.215-.814-.627-.815-.95 0-.142.17-.153 2.33-.153h2.331v-.757c0-1.657-.554-2.77-1.686-3.383-.546-.296-.576-.302-1.612-.302-.97 0-1.095.02-1.543.24-1.526.75-2.302 2.585-1.93 4.563.258 1.37 1.356 2.47 2.717 2.722.593.11 2.311.023 2.94-.147zm-3.546-4.477c0-.27.246-.715.522-.947.236-.2.367-.238.792-.238.607 0 .91.193 1.157.74.271.597.307.58-1.152.58-1.126 0-1.32-.02-1.32-.135zm88.95 4.376c1.275-.6 1.992-1.855 1.992-3.494 0-1.65-.708-2.91-1.979-3.52-.438-.21-.668-.258-1.377-.29-1.047-.045-1.633.116-2.349.644-.964.71-1.417 1.707-1.417 3.117 0 1.71.63 2.845 1.965 3.536.5.259.978.335 1.845.296.625-.028.882-.084 1.32-.29zm-2.23-1.658c-.543-.337-.858-1.293-.748-2.27.116-1.026.615-1.59 1.41-1.59.915 0 1.394.683 1.39 1.98-.004.889-.172 1.373-.61 1.758-.255.223-.375.264-.76.263-.26-.001-.556-.063-.682-.141zm16.377 1.816c.53-.155 1.15-.626 1.383-1.05.288-.523.3-1.463.027-1.997-.306-.597-.727-.888-2.153-1.49-1.039-.438-1.246-.697-.846-1.058.155-.14.31-.166.946-.156.418.007.946.07 1.173.144l.414.132.098-.496c.055-.272.135-.633.18-.8.043-.17.05-.332.014-.365-.173-.158-1.3-.342-2.099-.342-1.04 0-1.63.15-2.16.556-.579.44-.772.852-.77 1.643 0 1.222.37 1.66 1.966 2.337.887.376 1.372.7 1.372.922 0 .046-.084.167-.187.27-.172.172-.257.184-1.077.145-.507-.023-1.109-.11-1.396-.202-.277-.09-.522-.143-.545-.121-.039.04-.324 1.324-.346 1.562-.012.128.478.308 1.22.448.536.102 2.341.048 2.786-.082zm-153.67-.076.747-.154-.004-2.59c-.004-2.493-.012-2.61-.206-3.102a2.384 2.384 0 0 0-1.23-1.32c-.359-.164-.569-.187-1.77-.19-.885-.001-1.542.04-1.87.122-.457.112-.505.146-.498.352.01.307.202 1.39.257 1.444.024.025.26-.012.525-.08.591-.154 1.905-.162 2.193-.014.27.139.508.475.575.813l.053.263-1.167.003c-1.007.003-1.238.03-1.675.205-.596.237-.945.51-1.225.96-.173.279-.203.445-.203 1.119 0 .706.026.837.242 1.204.284.483.6.727 1.233.955.635.228 2.933.234 4.022.01zm-2.847-1.512c-.508-.152-.72-.592-.53-1.093.121-.314.753-.463 1.771-.416l.374.017v1.472l-.275.055c-.37.074-1.032.057-1.34-.036zm69.714.866c.08-.444.124-.84.1-.88-.025-.04-.124-.071-.22-.071a.827.827 0 0 1-.778-.594c-.057-.206-.092-1.85-.092-4.398 0-3.195-.024-4.067-.11-4.068-.06 0-.536.065-1.056.144l-.945.145.004 4.363c.003 3.895.02 4.407.154 4.765.256.684.55.97 1.26 1.225.264.095.71.172 1.007.174l.534.003.143-.808zm39.38.646.748-.153.026-2.107c.037-2.988-.098-3.75-.787-4.44-.555-.554-.923-.652-2.45-.655-1.574-.003-2.374.135-2.374.412 0 .294.19 1.43.25 1.492.032.033.274.003.54-.066.642-.17 1.87-.165 2.2.006.335.173.53.462.528.79v.266l-1.165.004c-1.11.004-1.193.016-1.74.27-.929.434-1.317 1.037-1.317 2.05 0 1.054.5 1.754 1.508 2.117.646.233 2.933.24 4.034.015zm-2.876-1.52c-.453-.13-.678-.62-.5-1.085.12-.31.768-.466 1.727-.416l.33.017v.737c0 .69-.012.74-.198.79-.284.077-1.03.054-1.36-.042zm-76.37-1.175v-2.77l.225-.055c.24-.06 1.517.007 1.89.099.22.054.224.042.374-.765.083-.451.151-.848.15-.883-.002-.158-.835-.281-1.89-.28-1.098 0-1.525.066-2.574.398l-.286.09v6.935h2.111zm12.841-.881v-3.65h-2.11v7.3h2.11zm47.847 1.89v-1.758h.496c.563 0 .512-.042 1.207 1.01.561.853.74 1.15 1.143 1.892l.31.572 1.236.024c.68.014 1.237.003 1.237-.023 0-.246-1.327-2.542-1.943-3.361-.189-.252-.344-.48-.344-.504 0-.026.15-.123.33-.217.344-.177.855-.677 1.103-1.08.218-.351.334-1.26.243-1.894-.234-1.64-1.44-2.448-3.918-2.627-.705-.05-2.325.054-3.037.197l-.262.052v9.477h2.2zm0-4.79v-1.298l.902.037c.972.04 1.544.238 1.74.605.134.25.122 1.078-.019 1.31-.222.369-.738.548-1.716.598l-.907.046zm30.256 3.744v-2.807l.438-.06c.338-.046.514-.023.77.102.563.275.631.627.636 3.306l.004 2.265h2.124l-.029-2.725-.029-2.725.264-.11c.396-.163.882-.134 1.156.07.416.31.458.588.465 3.137l.007 2.353h2.124l-.029-2.793-.028-2.792-.247-.502c-.433-.882-1.11-1.298-2.227-1.368-.808-.05-1.34.052-2.005.385l-.433.218-.535-.29c-.53-.288-.545-.29-1.722-.29-.812 0-1.444.052-2 .165l-.814.164v7.102h2.111V81.09zM65.42 75.57c.634-.324.788-1.35.282-1.877-.667-.697-1.775-.495-2.11.384-.184.48-.076.964.293 1.318.432.414.952.473 1.535.174zM8.05 67.928c-2.969-.471-5.578-2.507-6.81-5.312-.366-.83-.606-1.771-.754-2.951-.073-.58-.092-7.61-.069-26.08C.446 9.97.457 8.252.6 7.559 1.013 5.56 1.817 4.04 3.178 2.685 4.668 1.2 6.485.365 8.84.08 9.464.005 30.787-.013 93.407.009c78.904.027 83.774.038 84.462.18 3.538.737 6.035 3 7.12 6.458l.242.773v53.3l-.203.7c-1.019 3.519-3.78 5.984-7.294 6.514-.752.113-11.31.128-84.899.12-70.116-.006-84.164-.026-84.787-.126zm130.05-33.946c5.341-15.48 9.735-28.234 9.763-28.343l.051-.198h-8.867l-9.825 28.304c-5.403 15.566-9.824 28.33-9.824 28.365 0 .035 2.023.053 4.494.04l4.495-.023zM66.845 51.968a40.43 40.43 0 0 0 4.881-.625c1.502-.29 4.106-.938 4.794-1.195l.44-.164V29.848h-9.148l-.022 7.053c-.02 6.62-.032 7.055-.176 7.099-.406.122-2.15.229-3.747.228-2.647 0-4-.253-5.648-1.052-2.452-1.19-4.184-3.215-5.168-6.041-1.215-3.491-1.258-8.516-.103-12.042.9-2.75 2.48-4.781 4.591-5.906 2.95-1.572 7.794-1.844 11.856-.668 1.182.343 2.772.95 3.683 1.408.333.167.635.27.673.23.037-.04.648-1.69 1.36-3.668 1.021-2.844 1.267-3.613 1.174-3.676a27.326 27.326 0 0 0-1.173-.6c-1.786-.88-3.896-1.515-6.552-1.973-6.71-1.156-12.69-.184-17.24 2.802-3.257 2.14-5.713 5.23-7.237 9.11-1.442 3.67-1.889 8.595-1.205 13.28.79 5.413 3.345 10.006 7.143 12.843 2.752 2.056 6.428 3.382 10.315 3.72.825.073 5.378.054 6.51-.027zm27.75-8.047v-7.432h4.466l.804 1.033c.931 1.196 2.748 3.895 4.071 6.047.926 1.505 1.71 2.865 3.472 6.025l.957 1.715 5.12.023c3.67.016 5.12-.005 5.12-.074 0-.163-2.059-4.216-3.003-5.91-1.695-3.045-4-6.625-5.87-9.123a61.221 61.221 0 0 1-1.048-1.422c-.015-.032.38-.257.88-.5 1.8-.872 3.51-2.226 4.562-3.61.933-1.226 1.66-3.06 1.937-4.891.14-.92.14-3.494.002-4.43-.944-6.363-5.332-9.78-13.994-10.893-.967-.124-1.9-.153-5.014-.153-4.566-.001-6.66.145-10.18.713l-1.43.23v40.084h9.147V43.92zm0-20.184v-5.451l.241-.066c.431-.12 5.365-.08 6.135.047 3.072.507 4.765 1.516 5.396 3.215.395 1.062.455 2.602.148 3.748-.776 2.885-3.44 3.957-9.832 3.958h-2.089zM35.69 44.46c.622-1.927 1.12-3.516 1.103-3.532-.015-.015-4.124-1.62-9.13-3.563a2308.22 2308.22 0 0 1-9.127-3.556c-.012-.01 4.084-1.614 9.104-3.563a2203.38 2203.38 0 0 0 9.154-3.568c.06-.052-2.228-7.012-2.316-7.046-.052-.02-5.732 2.338-12.624 5.239l-12.53 5.274-.023 3.643-.023 3.643 12.512 5.28c6.882 2.905 12.57 5.275 12.641 5.268.09-.01.481-1.107 1.26-3.52zm128.575-1.74 12.57-5.288-.024-3.642-.023-3.642-12.529-5.274c-6.89-2.9-12.57-5.273-12.62-5.272-.087.002-2.389 7.016-2.323 7.074.017.015 4.14 1.623 9.164 3.573 6.301 2.447 9.083 3.566 8.971 3.61-5.633 2.182-18.11 7.046-18.13 7.068-.027.026 1.971 6.313 2.183 6.87.045.117.106.213.136.213.031 0 5.712-2.38 12.625-5.29z"/></svg>