<svg width="210mm" height="297mm" viewBox="0 0 185.231 87.481" xmlns="http://www.w3.org/2000/svg"><path style="fill:#000;stroke-width:.257104" d="M143.282 2.558 132.458 33.74c-5.952 17.148-10.823 31.21-10.823 31.249 0 .038 2.229.058 4.951.044l4.952-.026 10.7-31.006c5.885-17.054 10.726-31.105 10.756-31.225l.057-.218zm-83.035 4.77c-5.207-.083-9.852 1.136-13.612 3.604-3.588 2.357-6.293 5.761-7.972 10.036-1.589 4.043-2.082 9.469-1.328 14.63.87 5.963 3.685 11.023 7.87 14.149 3.031 2.265 7.08 3.726 11.363 4.098.909.08 5.923.06 7.17-.03 1.806-.12 3.601-.35 5.378-.688 1.655-.32 4.524-1.034 5.282-1.317l.484-.18V29.447H64.804l-.024 7.77c-.022 7.293-.035 7.772-.194 7.82-.447.135-2.368.253-4.128.252-2.916 0-4.406-.279-6.222-1.16-2.701-1.31-4.61-3.542-5.693-6.655-1.339-3.846-1.386-9.381-.114-13.266.992-3.03 2.732-5.267 5.058-6.506 3.25-1.732 8.586-2.032 13.061-.736 1.302.377 3.054 1.046 4.057 1.55.367.185.7.298.742.254.04-.044.714-1.862 1.499-4.041 1.124-3.133 1.395-3.98 1.293-4.05-.426-.23-.856-.45-1.292-.66-1.968-.97-4.293-1.67-7.219-2.174a34.96 34.96 0 0 0-5.381-.518Zm36.776.612c-5.03-.001-7.337.16-11.215.785l-1.576.253v44.16H94.31v-8.189l.001.001v-8.187h4.92l.886 1.137c1.026 1.318 3.027 4.292 4.485 6.663 1.02 1.658 1.884 3.156 3.825 6.637l1.054 1.89 5.641.025c4.043.017 5.64-.005 5.64-.081 0-.18-2.268-4.645-3.308-6.511-1.867-3.355-4.406-7.3-6.467-10.051a67.476 67.476 0 0 1-1.154-1.567c-.017-.035.418-.283.97-.55 1.982-.961 3.866-2.453 5.025-3.978 1.028-1.35 1.829-3.37 2.134-5.388.154-1.014.154-3.85.003-4.88-1.04-7.01-5.875-10.775-15.417-12.001-1.066-.137-2.093-.168-5.524-.168Zm.792 8.62c1.525.012 3.095.058 3.52.128 3.384.558 5.25 1.67 5.945 3.542.435 1.17.5 2.866.162 4.129-.855 3.178-3.79 4.36-10.831 4.36h-2.302l.001-6.005V16.71l.266-.073c.237-.066 1.715-.088 3.24-.076zm59.34 1.599c-.097.002-2.632 7.73-2.56 7.793.019.017 4.56 1.788 10.096 3.936 6.941 2.696 10.007 3.929 9.883 3.977-6.206 2.404-19.951 7.763-19.973 7.787-.03.029 2.171 6.955 2.405 7.569.05.129.116.234.15.234.033 0 6.292-2.622 13.908-5.828l13.848-5.825-.027-4.013-.025-4.012-13.802-5.81c-7.591-3.195-13.849-5.81-13.904-5.808zm-129.074.033c-.057-.022-6.315 2.576-13.908 5.772L.37 29.774l-.026 4.013L.319 37.8l13.784 5.816c7.582 3.2 13.848 5.812 13.926 5.804.1-.011.53-1.22 1.388-3.878v.001c.685-2.123 1.233-3.873 1.214-3.89-.016-.017-4.543-1.786-10.058-3.926a2542.755 2542.755 0 0 1-10.055-3.918c-.013-.011 4.5-1.778 10.03-3.925 3.364-1.303 6.726-2.613 10.085-3.93.066-.058-2.455-7.726-2.552-7.763z"/></svg>