<?xml version="1.0" encoding="UTF-8" standalone="no"?>
<!-- Created with Inkscape (http://www.inkscape.org/) -->

<svg
   width="210mm"
   height="297mm"
   viewBox="0 0 210 297"
   version="1.1"
   id="svg5"
   inkscape:version="1.1.2 (b8e25be8, 2022-02-05)"
   sodipodi:docname="gabrielramos-logowithbackground.svg"
   xmlns:inkscape="http://www.inkscape.org/namespaces/inkscape"
   xmlns:sodipodi="http://sodipodi.sourceforge.net/DTD/sodipodi-0.dtd"
   xmlns="http://www.w3.org/2000/svg"
   xmlns:svg="http://www.w3.org/2000/svg">
  <sodipodi:namedview
     id="namedview7"
     pagecolor="#ffffff"
     bordercolor="#666666"
     borderopacity="1.0"
     inkscape:pageshadow="2"
     inkscape:pageopacity="0.0"
     inkscape:pagecheckerboard="0"
     inkscape:document-units="mm"
     showgrid="false"
     inkscape:zoom="0.66622795"
     inkscape:cx="452.54781"
     inkscape:cy="494.57547"
     inkscape:window-width="1312"
     inkscape:window-height="839"
     inkscape:window-x="270"
     inkscape:window-y="1239"
     inkscape:window-maximized="0"
     inkscape:current-layer="layer1" />
  <defs
     id="defs2" />
  <g
     inkscape:label="Layer 1"
     inkscape:groupmode="layer"
     id="layer1">
    <rect
       style="fill:#ffffff;fill-opacity:1;stroke-width:0.216113"
       id="rect1402"
       width="180.20457"
       height="14.404952"
       x="15.980779"
       y="80.113503"
       inkscape:export-filename="/Users/gabrielramos/Documents/MyRepos/my-webapp/src/assets/images/Logo.png"
       inkscape:export-xdpi="96"
       inkscape:export-ydpi="96" />
    <rect
       style="fill:#ffffff;fill-opacity:1;stroke-width:0.272989"
       id="rect1298"
       width="176.72568"
       height="60.890434"
       x="17.871136"
       y="12.18265"
       inkscape:export-filename="/Users/gabrielramos/Documents/MyRepos/my-webapp/src/assets/images/Logo.png"
       inkscape:export-xdpi="96"
       inkscape:export-ydpi="96" />
    <path
       style="fill:#207178;fill-opacity:1;stroke-width:0.0879539"
       d="m 15.640177,95.709715 c -0.534105,-0.19049 -0.955892,-0.58088 -1.242569,-1.15008 l -0.263862,-0.52391 v -6.81643 c 0,-7.58631 -0.03847,-7.09226 0.607867,-7.80767 0.174416,-0.19306 0.52458,-0.4448 0.778143,-0.55943 l 0.461023,-0.20841 90.416641,-0.0229 c 64.45965,-0.0163 90.54897,0.004 90.8776,0.072 0.64484,0.13283 1.22139,0.55634 1.55278,1.1406 l 0.27306,0.48141 v 6.94836 6.94836 l -0.19085,0.35647 c -0.23665,0.44206 -0.65826,0.86118 -1.07502,1.0687 -0.30463,0.15169 -3.94405,0.15873 -91.08575,0.1762 -77.021979,0.0154 -90.820044,0 -91.109063,-0.10329 z m 9.70897,-3.56011 c 0.382441,-0.0913 0.736504,-0.19152 0.786806,-0.22261 0.05965,-0.0369 0.09146,-0.88073 0.09146,-2.42609 v -2.36956 h -1.099424 -1.099424 v 1.68085 1.68085 l -0.945505,-0.0361 c -1.26935,-0.0484 -1.755786,-0.30711 -2.284052,-1.21476 -0.471667,-0.81039 -0.508475,-2.52246 -0.075,-3.48838 0.467809,-1.04241 1.091696,-1.38478 2.512971,-1.37902 0.776781,0.003 1.02303,0.0408 1.549835,0.23672 0.344475,0.12814 0.647471,0.23299 0.673324,0.23299 0.02585,0 0.16604,-0.32653 0.311523,-0.72562 0.145485,-0.39909 0.289785,-0.78914 0.320667,-0.86677 0.04238,-0.10654 -0.04738,-0.18555 -0.366142,-0.32224 -0.865246,-0.37104 -1.519594,-0.49106 -2.709092,-0.49691 -1.334551,-0.007 -1.97019,0.16119 -2.858479,0.75437 -1.360954,0.90881 -2.024476,2.30327 -2.021457,4.2483 0.0042,2.70884 1.371619,4.49853 3.736535,4.89041 0.6846,0.11345 2.687382,0.0117 3.475455,-0.17648 z m 28.172194,0.17411 c 1.978831,-0.32408 3.079269,-1.89355 2.93146,-4.1809 -0.101509,-1.57087 -0.691795,-2.59503 -1.783805,-3.09497 -0.735201,-0.33659 -1.915074,-0.36619 -2.693269,-0.0676 -0.143187,0.055 -0.153723,-0.0622 -0.153723,-1.7095 0,-2.00417 0.07927,-1.83647 -0.797421,-1.68702 -0.262851,0.0448 -0.66623,0.10665 -0.896399,0.13742 l -0.418487,0.056 0.02269,5.1078 0.02269,5.10781 0.483747,0.12496 c 0.96718,0.24985 2.447565,0.34275 3.282508,0.20601 z m -1.699337,-3.64635 v -1.8842 l 0.329827,-0.11034 c 0.778379,-0.26041 1.562634,-0.054 1.882746,0.49561 0.384271,0.65972 0.359022,2.09751 -0.04743,2.70065 -0.351727,0.52193 -0.698582,0.68246 -1.474521,0.68246 h -0.690624 z m 42.42162,3.50116 c 0.299132,-0.0814 0.575298,-0.17544 0.613716,-0.20908 0.06084,-0.0533 -0.02046,-0.80158 -0.163497,-1.50489 l -0.04656,-0.22891 -0.587646,0.16295 c -0.878036,0.24347 -1.958295,0.221 -2.546794,-0.053 -0.460615,-0.21445 -0.814181,-0.62641 -0.814876,-0.94945 0,-0.14272 0.169171,-0.15392 2.330454,-0.15392 H 95.3592 v -0.7569 c 0,-1.6567 -0.554506,-2.76941 -1.685743,-3.38274 -0.546589,-0.29634 -0.576951,-0.30203 -1.612529,-0.30203 -0.970889,0 -1.094473,0.0192 -1.542554,0.23945 -1.526546,0.75041 -2.30281,2.58571 -1.930395,4.56402 0.258065,1.37092 1.355783,2.47067 2.716562,2.72161 0.593654,0.10946 2.311905,0.0235 2.939086,-0.14712 z m -3.545985,-4.47831 c 0,-0.26836 0.246007,-0.71412 0.522516,-0.94678 0.235849,-0.19846 0.366733,-0.23777 0.791682,-0.23777 0.607102,0 0.908934,0.19313 1.157632,0.74069 0.270978,0.59665 0.306889,0.57862 -1.152521,0.57862 -1.126374,0 -1.319309,-0.0197 -1.319309,-0.13476 z m 88.949811,4.37623 c 1.27597,-0.59836 1.99247,-1.85476 1.99247,-3.49386 0,-1.64943 -0.70823,-2.9089 -1.9788,-3.51899 -0.43808,-0.21035 -0.66792,-0.25869 -1.37759,-0.28974 -1.04625,-0.0458 -1.63256,0.11461 -2.34821,0.64236 -0.9645,0.71126 -1.41759,1.70755 -1.41759,3.11713 0,1.71068 0.63034,2.84491 1.96522,3.53623 0.49941,0.25864 0.97788,0.33553 1.84519,0.29653 0.62509,-0.0281 0.88165,-0.0844 1.31931,-0.28966 z m -2.22976,-1.65773 c -0.54266,-0.33708 -0.85775,-1.29349 -0.74766,-2.26942 0.11579,-1.02649 0.61525,-1.58965 1.40984,-1.58965 0.91482,0 1.39382,0.68236 1.38919,1.97896 -0.003,0.88869 -0.1711,1.3728 -0.60977,1.75796 -0.25429,0.22327 -0.37399,0.26461 -0.76049,0.26264 -0.26,-0.001 -0.55505,-0.0622 -0.68111,-0.14049 z m 16.37755,1.81592 c 0.52887,-0.15477 1.15008,-0.62637 1.38319,-1.05005 0.28791,-0.5233 0.30026,-1.46282 0.0263,-1.99725 -0.30599,-0.59681 -0.72656,-0.88775 -2.15303,-1.48935 -1.03839,-0.43794 -1.2456,-0.69734 -0.8457,-1.05875 0.15484,-0.13992 0.31075,-0.16557 0.94551,-0.15554 0.41806,0.007 0.94622,0.0714 1.1737,0.14405 l 0.41359,0.13204 0.0986,-0.49586 c 0.0542,-0.27273 0.13448,-0.6332 0.17835,-0.80106 0.0439,-0.16785 0.0509,-0.3316 0.0155,-0.36388 -0.17332,-0.15842 -1.30108,-0.3424 -2.0988,-0.3424 -1.0415,0 -1.63052,0.15158 -2.16083,0.55606 -0.57837,0.44113 -0.77119,0.85219 -0.77061,1.64279 8.8e-4,1.22216 0.3708,1.66168 1.96718,2.33744 0.88721,0.37556 1.3717,0.70113 1.3717,0.92176 0,0.0457 -0.0841,0.16718 -0.18695,0.26999 -0.17233,0.17233 -0.2566,0.1837 -1.07744,0.14544 -0.50666,-0.0236 -1.10801,-0.11097 -1.39516,-0.20267 -0.27756,-0.0886 -0.52278,-0.14305 -0.54492,-0.1209 -0.0394,0.0393 -0.32427,1.32442 -0.34647,1.56263 -0.0119,0.12799 0.4777,0.30771 1.22016,0.44789 0.53614,0.10121 2.34114,0.0478 2.78614,-0.0824 z m -153.671109,-0.0759 0.747609,-0.15385 -0.0038,-2.59069 c -0.0037,-2.49238 -0.0115,-2.61008 -0.206242,-3.10183 -0.238249,-0.60163 -0.664206,-1.05841 -1.229789,-1.3188 -0.358915,-0.16523 -0.568773,-0.18778 -1.770465,-0.19022 -0.88425,-0.002 -1.540992,0.0408 -1.869021,0.12122 -0.457016,0.11204 -0.505066,0.14593 -0.498787,0.35181 0.0094,0.30682 0.202099,1.38971 0.257149,1.44476 0.02419,0.0242 0.260341,-0.0122 0.524785,-0.0807 0.591448,-0.15342 1.905064,-0.16149 2.193073,-0.0135 0.269653,0.13858 0.507937,0.47485 0.575578,0.81228 l 0.0529,0.26386 -1.167548,0.003 c -1.0065,0.003 -1.237498,0.0309 -1.674656,0.20473 -0.595558,0.23679 -0.945231,0.51116 -1.225105,0.96127 -0.172554,0.27751 -0.202774,0.4441 -0.202774,1.1177 0,0.70543 0.02636,0.83643 0.242212,1.20363 0.283923,0.48298 0.59899,0.72714 1.232587,0.95518 0.63476,0.22846 2.933173,0.23422 4.022321,0.0101 z m -2.845964,-1.51171 c -0.508057,-0.15224 -0.721537,-0.59283 -0.529604,-1.093 0.120569,-0.3142 0.752262,-0.46288 1.770409,-0.41669 l 0.373804,0.017 v 0.73661 0.73662 l -0.274856,0.055 c -0.370952,0.0742 -1.032254,0.0567 -1.339753,-0.0355 z m 69.714243,0.86597 c 0.0787,-0.4442 0.12316,-0.83999 0.0987,-0.87954 -0.0244,-0.0395 -0.12322,-0.0719 -0.21952,-0.0719 -0.35184,0 -0.68272,-0.25273 -0.77745,-0.59383 -0.0573,-0.20645 -0.0917,-1.8502 -0.092,-4.39755 0,-3.19513 -0.0241,-4.06798 -0.11044,-4.06838 -0.0605,-2.6e-4 -0.53542,0.0646 -1.05544,0.14414 l -0.94551,0.14463 0.004,4.36351 c 0.003,3.89451 0.0198,4.40658 0.15392,4.76424 0.25661,0.68438 0.55062,0.97055 1.25886,1.22529 0.26562,0.0955 0.70958,0.17208 1.00832,0.17386 l 0.53376,0.003 0.14316,-0.80763 z m 39.38007,0.64602 0.74761,-0.15359 0.0262,-2.10721 c 0.0372,-2.98728 -0.0979,-3.74854 -0.78776,-4.43837 -0.55492,-0.55493 -0.92223,-0.6534 -2.44879,-0.6565 -1.57454,-0.003 -2.37476,0.1357 -2.37476,0.41221 0,0.29463 0.19034,1.42996 0.2501,1.49181 0.0318,0.0329 0.27416,0.003 0.53866,-0.066 0.64375,-0.16829 1.8704,-0.1651 2.20071,0.006 0.33558,0.17354 0.52872,0.46207 0.52857,0.78966 v 0.26629 l -1.16528,0.004 c -1.10939,0.004 -1.19277,0.0168 -1.7388,0.27119 -0.92993,0.43327 -1.31747,1.03602 -1.31747,2.04908 0,1.05432 0.4985,1.75442 1.50774,2.11748 0.64554,0.23221 2.93294,0.24029 4.03335,0.0142 z m -2.87655,-1.51893 c -0.45336,-0.13109 -0.67792,-0.61983 -0.49902,-1.08606 0.11877,-0.3095 0.7672,-0.46601 1.72643,-0.41669 l 0.32983,0.017 v 0.73735 c 0,0.69031 -0.0126,0.74073 -0.1979,0.79038 -0.28453,0.0763 -1.03014,0.0533 -1.35934,-0.0419 z m -76.369943,-1.17627 v -2.76888 l 0.22481,-0.0564 c 0.239634,-0.0601 1.517342,0.007 1.889102,0.099 0.219298,0.0544 0.225363,0.042 0.374925,-0.76492 0.08361,-0.45111 0.151517,-0.84836 0.150901,-0.88278 -0.0028,-0.15782 -0.835846,-0.28151 -1.89213,-0.28095 -1.096349,6.1e-4 -1.523547,0.0668 -2.572652,0.39867 l -0.285851,0.0904 v 3.46736 3.46736 h 1.055447 1.055448 z m 12.841273,-0.88123 v -3.65009 h -1.055447 -1.055447 v 3.65009 3.65009 h 1.055447 1.055447 z m 47.84694,1.89101 v -1.75908 h 0.49604 c 0.56232,0 0.51212,-0.0421 1.2067,1.01147 0.5614,0.85152 0.74078,1.14834 1.14288,1.89101 l 0.30953,0.5717 1.23694,0.0244 c 0.68034,0.0134 1.23696,0.003 1.23696,-0.0239 0,-0.24561 -1.32687,-2.54106 -1.94276,-3.36094 -0.18922,-0.25189 -0.34404,-0.47866 -0.34404,-0.50395 0,-0.0253 0.14842,-0.12257 0.32983,-0.2162 0.34399,-0.17756 0.8546,-0.67721 1.10283,-1.07917 0.21758,-0.35235 0.3338,-1.25939 0.24286,-1.89556 -0.23429,-1.63907 -1.44023,-2.44737 -3.91835,-2.62635 -0.70444,-0.0509 -2.32442,0.0539 -3.03691,0.19637 l -0.26136,0.0523 v 4.73851 4.73853 h 1.09943 1.09942 z m 0,-4.79084 v -1.29794 l 0.90153,0.0367 c 0.97253,0.0396 1.54413,0.23837 1.74043,0.60515 0.13411,0.2506 0.1221,1.07824 -0.0191,1.31152 -0.22213,0.36711 -0.73784,0.54628 -1.71614,0.59621 l -0.90677,0.0463 z m 30.25615,3.74364 v -2.80627 l 0.43813,-0.0603 c 0.338,-0.0465 0.51388,-0.0233 0.76959,0.10169 0.56333,0.27522 0.6309,0.62684 0.63546,3.3063 l 0.004,2.26482 h 1.06216 1.06216 l -0.0287,-2.72508 -0.0287,-2.72508 0.26386,-0.10934 c 0.39562,-0.16394 0.88215,-0.13479 1.15541,0.0692 0.41671,0.31112 0.4578,0.5883 0.46504,3.1375 l 0.007,2.35277 h 1.06199 1.062 l -0.0285,-2.79254 -0.0285,-2.79254 -0.24635,-0.50167 c -0.433,-0.88184 -1.11158,-1.29857 -2.22789,-1.36821 -0.80772,-0.0504 -1.34042,0.052 -2.00476,0.38536 l -0.43313,0.21734 -0.53437,-0.28993 c -0.52941,-0.28723 -0.5454,-0.28992 -1.72175,-0.28989 -0.81246,2e-5 -1.44426,0.0521 -2.00095,0.16483 l -0.81357,0.1648 v 3.55123 3.55122 h 1.05544 1.05545 v -2.80628 z m -78.516982,-5.52023 c 0.633682,-0.32388 0.787691,-1.34828 0.282044,-1.87606 -0.667846,-0.69709 -1.775171,-0.49584 -2.111057,0.38367 -0.183207,0.47972 -0.0752,0.96429 0.293702,1.31772 0.431869,0.41376 0.951779,0.47291 1.535311,0.17467 z m -57.371837,-7.64104 c -2.96756,-0.47155 -5.576582,-2.50714 -6.809352,-5.31274 -0.364885,-0.83042 -0.605039,-1.77096 -0.753501,-2.95102 -0.07274,-0.57818 -0.09122,-7.6087 -0.06855,-26.07834 0.02899,-23.617507 0.04114,-25.335697 0.18415,-26.028327 0.412502,-1.99785 1.216316,-3.51753 2.5776,-4.87319 1.49054,-1.4843804 3.306754,-2.3198904 5.661242,-2.6043304 0.624882,-0.0755 21.947984,-0.0935 84.5677,-0.0716 78.90383,0.0276 83.77425,0.0381 84.46245,0.18117 3.53822,0.7357 6.03452,2.9999804 7.11909,6.4574204 l 0.24236,0.7726 v 26.650037 26.65003 l -0.20248,0.69934 c -1.0189,3.51911 -3.77934,5.9845 -7.29385,6.51426 -0.75243,0.11341 -11.31103,0.12852 -84.89927,0.12152 -70.116145,-0.007 -84.163842,-0.0277 -84.787585,-0.1268 z M 152.23225,42.318815 c 5.34191,-15.479887 9.73563,-28.234297 9.76383,-28.343147 l 0.0513,-0.19789 h -4.43387 -4.43386 l -9.82421,28.303427 c -5.40331,15.56689 -9.8242,28.33156 -9.8242,28.36594 0,0.0344 2.02241,0.0523 4.49424,0.0397 l 4.49425,-0.0228 z m -71.25352,17.98623 c 1.764048,-0.12549 3.317393,-0.32465 4.881443,-0.62586 1.50147,-0.28917 4.105355,-0.93797 4.793489,-1.19439 l 0.439769,-0.16387 V 48.252955 38.184988 h -4.573604 -4.573604 l -0.02251,7.052537 c -0.02113,6.61992 -0.03192,7.05538 -0.175908,7.0989 -0.405631,0.12259 -2.150068,0.22897 -3.746838,0.22851 -2.646618,-8e-4 -3.999473,-0.2529 -5.647561,-1.05249 -2.452766,-1.19 -4.184787,-3.21437 -5.168728,-6.04116 -1.215084,-3.49084 -1.257909,-8.515317 -0.102637,-12.042047 0.900569,-2.74919 2.480098,-4.78098 4.591249,-5.90585 2.949352,-1.57148 7.793806,-1.84413 11.856105,-0.66728 1.181722,0.34235 2.771296,0.94986 3.683044,1.40761 0.332554,0.16696 0.635001,0.2709 0.6721,0.23098 0.03709,-0.0399 0.648933,-1.69097 1.359653,-3.66899 1.021875,-2.84404 1.267671,-3.61298 1.174933,-3.6757 -0.06451,-0.0436 -0.592229,-0.31341 -1.172725,-0.59953 -1.786336,-0.88046 -3.89686,-1.51619 -6.552568,-1.97374 -6.710347,-1.15612 -12.690727,-0.18405 -17.238969,2.80207 -3.257962,2.139 -5.713456,5.22952 -7.23827,9.11021 -1.441901,3.66967 -1.888521,8.59481 -1.204347,13.281037 0.790012,5.41117 3.344925,10.00448 7.143058,12.84203 2.751448,2.05558 6.427772,3.38178 10.314836,3.72099 0.824928,0.072 5.378184,0.0524 6.508591,-0.028 z m 27.74947,-8.04743 v -7.43211 h 2.23327 2.23328 l 0.80454,1.03346 c 0.93113,1.19609 2.74815,3.89489 4.07114,6.04683 0.92522,1.50495 1.70874,2.86458 3.47197,6.02484 l 0.95691,1.71511 5.12016,0.0227 c 3.66959,0.0163 5.12015,-0.005 5.12015,-0.0738 0,-0.16318 -2.05934,-4.21615 -3.00327,-5.91071 -1.69574,-3.04422 -3.99989,-6.6247 -5.87051,-9.12233 -0.56157,-0.7498 -1.03314,-1.3897 -1.04794,-1.422 -0.0148,-0.0323 0.381,-0.25661 0.87954,-0.49847 1.80063,-0.87357 3.51138,-2.227237 4.56255,-3.610217 0.93284,-1.22731 1.65897,-3.06102 1.93712,-4.89185 0.13971,-0.91959 0.14073,-3.49471 0.002,-4.43109 -0.94428,-6.36254 -5.33251,-9.77791 -13.9946,-10.89206 -0.96642,-0.1243 -1.89935,-0.15289 -5.01337,-0.1536 -4.56661,-10e-4 -6.65972,0.14566 -10.18067,0.71359 l -1.429254,0.23053 v 20.04163 20.041617 h 4.573614 4.5736 v -7.43211 z m 0,-20.183747 v -5.45147 l 0.24187,-0.0662 c 0.4313,-0.11804 5.36468,-0.0801 6.13479,0.0472 3.07201,0.50776 4.76529,1.51668 5.39653,3.21546 0.39461,1.06195 0.45509,2.60224 0.14715,3.74786 -0.77532,2.8845 -3.44009,3.95738 -9.83144,3.9583 l -2.0889,3e-4 z M 49.823482,52.798095 c 0.62199,-1.92739 1.118317,-3.51685 1.102948,-3.53213 -0.01537,-0.0153 -4.124397,-1.61879 -9.131174,-3.56335 -5.006777,-1.94456 -9.113426,-3.54459 -9.125887,-3.55563 -0.01246,-0.011 4.083994,-1.614677 9.103232,-3.563647 5.019237,-1.94897 9.138684,-3.55453 9.154325,-3.56792 0.06017,-0.0515 -2.228078,-7.01181 -2.316296,-7.04566 -0.05126,-0.0197 -5.731827,2.33765 -12.623484,5.2385 l -12.530284,5.27426 -0.02294,3.643087 -0.02294,3.64309 12.512401,5.28089 c 6.881821,2.90449 12.570184,5.27458 12.640808,5.26687 0.08835,-0.01 0.481206,-1.10725 1.259298,-3.51836 z m 128.574418,-1.73952 12.56913,-5.2889 -0.0229,-3.64207 -0.0229,-3.642067 -12.52885,-5.27359 c -6.89086,-2.90048 -12.57049,-5.27284 -12.62139,-5.27193 -0.0863,0.002 -2.38815,7.01535 -2.3217,7.07412 0.0167,0.0148 4.14022,1.62257 9.16344,3.57294 6.3015,2.446677 9.08294,3.565547 8.9713,3.608817 -5.63348,2.1831 -18.10955,7.04709 -18.13116,7.06871 -0.0263,0.0263 1.97246,6.31289 2.18432,6.8701 0.0445,0.11702 0.10581,0.21276 0.13628,0.21276 0.0305,0 5.7115,-2.38 12.62452,-5.28889 z"
       id="path1046"
       inkscape:export-filename="/Users/gabrielramos/Documents/MyRepos/my-webapp/src/assets/images/Logo.png"
       inkscape:export-xdpi="96"
       inkscape:export-ydpi="96" />
  </g>
</svg>
