<svg width="210mm" height="297mm" viewBox="0 0 210 297" xmlns="http://www.w3.org/2000/svg"><path style="fill:#fff;fill-opacity:1;stroke-width:.216113" d="M15.981 80.114h180.205v14.405H15.981z"/><path style="fill:#fff;fill-opacity:1;stroke-width:.272989" d="M17.871 12.183h176.726v60.89H17.871z"/><path style="fill:#207178;fill-opacity:1;stroke-width:.0879539" d="M15.64 95.71c-.534-.19-.956-.581-1.242-1.15l-.264-.524v-6.817c0-7.586-.039-7.092.608-7.807.174-.193.524-.445.778-.56l.46-.208 90.417-.023c64.46-.016 90.55.004 90.878.072a2.355 2.355 0 0 1 1.553 1.14l.273.482v13.897l-.191.356c-.237.442-.658.861-1.075 1.069-.305.151-3.944.159-91.086.176-77.022.015-90.82 0-91.109-.103zm9.71-3.56c.382-.092.736-.192.786-.223.06-.037.091-.88.091-2.426v-2.37h-2.199v3.362l-.945-.036c-1.27-.048-1.756-.307-2.284-1.215-.472-.81-.508-2.522-.075-3.488.468-1.043 1.092-1.385 2.513-1.38.777.004 1.023.042 1.55.238.344.128.647.232.673.232.026 0 .166-.326.312-.725.145-.4.29-.79.32-.867.043-.106-.047-.185-.366-.322-.865-.371-1.52-.491-2.709-.497-1.334-.007-1.97.161-2.858.754-1.361.91-2.025 2.304-2.022 4.249.004 2.708 1.372 4.498 3.737 4.89.684.113 2.687.012 3.475-.176zm28.171.174c1.98-.324 3.08-1.894 2.932-4.181-.102-1.571-.692-2.595-1.784-3.095-.735-.337-1.915-.366-2.693-.068-.143.055-.154-.062-.154-1.71 0-2.003.08-1.836-.797-1.686-.263.045-.667.106-.897.137l-.418.056.022 5.108.023 5.108.484.125c.967.25 2.447.342 3.282.206zm-1.699-3.647v-1.884l.33-.11c.778-.26 1.562-.054 1.883.495.384.66.359 2.098-.048 2.701-.352.522-.698.683-1.474.683h-.691zm42.422 3.502c.299-.082.575-.176.613-.21.061-.053-.02-.801-.163-1.504l-.047-.23-.587.164c-.878.243-1.959.22-2.547-.053-.46-.215-.814-.627-.815-.95 0-.143.17-.154 2.33-.154h2.331v-.757c0-1.656-.554-2.77-1.686-3.382-.546-.297-.576-.302-1.612-.302-.971 0-1.095.019-1.543.239-1.526.75-2.302 2.586-1.93 4.564.258 1.37 1.356 2.47 2.717 2.722.593.11 2.311.023 2.939-.147zM90.698 87.7c0-.268.246-.714.522-.947.236-.198.367-.237.792-.237.607 0 .909.193 1.157.74.271.597.307.579-1.152.579-1.126 0-1.32-.02-1.32-.135zm88.95 4.376c1.275-.598 1.992-1.854 1.992-3.493 0-1.65-.708-2.91-1.979-3.52-.438-.21-.668-.258-1.377-.29-1.047-.045-1.633.115-2.349.643-.964.711-1.417 1.708-1.417 3.117 0 1.711.63 2.845 1.965 3.537.5.258.978.335 1.845.296.625-.028.882-.084 1.32-.29zm-2.23-1.657c-.543-.337-.858-1.294-.748-2.27.116-1.026.615-1.59 1.41-1.59.915 0 1.394.683 1.39 1.98-.004.888-.172 1.372-.61 1.758-.255.223-.375.264-.761.262-.26 0-.555-.062-.681-.14zm16.377 1.816c.53-.155 1.15-.627 1.383-1.05.288-.524.3-1.463.027-1.998-.306-.596-.727-.887-2.153-1.489-1.039-.438-1.246-.697-.846-1.059.155-.14.31-.165.946-.155.418.007.946.071 1.173.144l.414.132.098-.496c.055-.273.135-.633.179-.801.044-.168.05-.332.015-.364-.173-.158-1.3-.342-2.099-.342-1.041 0-1.63.151-2.16.556-.579.44-.772.852-.771 1.642 0 1.223.37 1.662 1.967 2.338.887.375 1.372.701 1.372.922 0 .045-.084.167-.187.27-.172.172-.257.183-1.077.145-.507-.024-1.109-.11-1.396-.203-.277-.088-.522-.143-.545-.12-.039.039-.324 1.324-.346 1.562-.012.128.478.308 1.22.448.536.101 2.341.048 2.786-.082zm-153.67-.076.747-.154-.004-2.59c-.004-2.493-.012-2.61-.206-3.103a2.384 2.384 0 0 0-1.23-1.318c-.359-.166-.569-.188-1.77-.19-.885-.003-1.542.04-1.87.12-.457.113-.505.146-.498.352.009.307.202 1.39.257 1.445.024.024.26-.012.525-.08.591-.154 1.905-.162 2.193-.014.27.139.508.475.575.812l.053.264-1.167.003c-1.007.003-1.238.031-1.675.205-.596.237-.945.511-1.225.961-.173.278-.203.444-.203 1.118 0 .705.026.836.242 1.203.284.483.6.728 1.233.956.635.228 2.933.234 4.022.01zm-2.847-1.512c-.508-.152-.721-.593-.53-1.093.121-.314.753-.463 1.771-.417l.374.017v1.474l-.275.055c-.371.074-1.032.056-1.34-.036zm69.714.866c.08-.444.124-.84.1-.88-.025-.039-.124-.071-.22-.071a.827.827 0 0 1-.778-.594c-.057-.207-.092-1.85-.092-4.398 0-3.195-.024-4.068-.11-4.068-.06 0-.536.064-1.056.144l-.945.145.004 4.363c.003 3.895.02 4.407.154 4.764.256.685.55.97 1.259 1.226.265.095.71.172 1.008.173l.534.003.143-.807zm39.38.646.748-.154.026-2.107c.037-2.987-.098-3.748-.787-4.438-.555-.555-.923-.654-2.45-.657-1.574-.003-2.374.136-2.374.413 0 .294.19 1.43.25 1.491.032.033.274.003.539-.066.643-.168 1.87-.165 2.2.006.336.174.53.462.529.79v.266l-1.165.004c-1.11.004-1.193.017-1.74.272-.929.433-1.317 1.036-1.317 2.049 0 1.054.499 1.754 1.508 2.117.646.232 2.933.24 4.034.014zm-2.876-1.519c-.453-.131-.678-.62-.5-1.086.12-.31.768-.466 1.727-.417l.33.017v.738c0 .69-.012.74-.198.79-.284.076-1.03.053-1.36-.042zm-76.37-1.176v-2.77l.225-.055c.24-.06 1.517.007 1.889.099.22.054.225.042.375-.765.083-.451.151-.849.15-.883-.002-.158-.835-.282-1.891-.281-1.097 0-1.524.067-2.573.399l-.286.09V92.233H67.126zm12.841-.881v-3.65H77.856v7.3H79.967zm47.847 1.89v-1.758h.496c.563 0 .512-.043 1.207 1.011.561.852.74 1.148 1.143 1.891l.31.572 1.236.024c.68.013 1.237.003 1.237-.024 0-.245-1.327-2.54-1.943-3.36-.189-.253-.344-.48-.344-.505 0-.025.149-.122.33-.216.344-.177.855-.677 1.103-1.08.218-.351.334-1.258.243-1.895-.234-1.639-1.44-2.447-3.918-2.626-.705-.05-2.325.054-3.037.196l-.262.053v9.477h2.2zm0-4.79v-1.298l.902.037c.972.04 1.544.238 1.74.605.134.25.122 1.078-.019 1.311-.222.367-.738.546-1.716.596l-.907.047zm30.256 3.743V86.62l.438-.06c.338-.047.514-.023.77.102.563.275.631.626.636 3.306l.004 2.265h2.124l-.029-2.725-.029-2.726.264-.109c.396-.164.882-.135 1.156.07.416.31.458.588.465 3.137l.007 2.353H166l-.029-2.793-.028-2.792-.247-.502c-.433-.882-1.111-1.299-2.227-1.368-.808-.05-1.34.052-2.005.385l-.433.217-.535-.29c-.53-.287-.545-.29-1.722-.29-.812 0-1.444.053-2 .165l-.814.165v7.103H158.071v-2.807zm-78.517-5.52c.634-.324.788-1.348.282-1.876-.667-.697-1.775-.496-2.11.384-.184.48-.076.964.293 1.317.432.414.952.473 1.535.175zm-57.371-7.64c-2.968-.472-5.577-2.508-6.81-5.314-.365-.83-.605-1.77-.753-2.95-.073-.579-.092-7.61-.069-26.079.03-23.617.041-25.336.184-26.028.413-1.998 1.217-3.518 2.578-4.873 1.49-1.485 3.307-2.32 5.661-2.605.625-.075 21.948-.093 84.568-.071 78.904.027 83.774.038 84.462.18 3.538.736 6.035 3 7.12 6.458l.242.773v53.3l-.203.7c-1.019 3.518-3.78 5.984-7.294 6.513-.752.114-11.31.129-84.899.122-70.116-.007-84.164-.028-84.787-.127zm130.05-33.947c5.342-15.48 9.736-28.234 9.764-28.343l.051-.198h-8.867l-9.825 28.303c-5.403 15.567-9.824 28.332-9.824 28.366 0 .035 2.023.052 4.494.04l4.495-.023zM80.98 60.305a40.43 40.43 0 0 0 4.881-.626c1.502-.289 4.106-.938 4.794-1.194l.44-.164V38.185h-9.148l-.022 7.053c-.021 6.62-.032 7.055-.176 7.098-.406.123-2.15.23-3.747.229-2.647 0-4-.253-5.648-1.053-2.452-1.19-4.184-3.214-5.168-6.04-1.215-3.492-1.258-8.516-.103-12.043.9-2.749 2.48-4.78 4.591-5.906 2.95-1.571 7.794-1.844 11.856-.667 1.182.342 2.772.95 3.683 1.408.333.167.635.27.673.23.037-.04.648-1.69 1.36-3.668 1.021-2.844 1.267-3.613 1.174-3.676a27.326 27.326 0 0 0-1.173-.6c-1.786-.88-3.896-1.516-6.552-1.973-6.71-1.156-12.69-.184-17.24 2.802-3.257 2.139-5.713 5.23-7.237 9.11-1.442 3.67-1.889 8.595-1.205 13.281.79 5.411 3.345 10.005 7.143 12.842 2.752 2.056 6.428 3.382 10.315 3.721.825.072 5.378.052 6.509-.028zm27.75-8.047v-7.432h4.466l.804 1.033c.931 1.196 2.748 3.895 4.071 6.047.926 1.505 1.71 2.864 3.472 6.025l.957 1.715 5.12.022c3.67.017 5.12-.005 5.12-.073 0-.164-2.059-4.217-3.003-5.911-1.695-3.044-4-6.625-5.87-9.122a61.221 61.221 0 0 1-1.048-1.422c-.015-.033.38-.257.88-.499 1.8-.873 3.51-2.227 4.562-3.61.933-1.227 1.659-3.061 1.937-4.892.14-.92.14-3.495.002-4.431-.944-6.363-5.332-9.778-13.994-10.892-.967-.124-1.9-.153-5.014-.154-4.566 0-6.66.146-10.18.714l-1.43.23V59.69h9.147v-7.432zm0-20.184v-5.452l.241-.066c.431-.118 5.365-.08 6.135.047 3.072.508 4.765 1.517 5.396 3.216.395 1.062.455 2.602.148 3.748-.776 2.884-3.44 3.957-9.832 3.958h-2.089zM49.822 52.798c.622-1.927 1.119-3.517 1.103-3.532-.015-.015-4.124-1.619-9.13-3.563a2308.22 2308.22 0 0 1-9.127-3.556c-.012-.011 4.084-1.615 9.104-3.564 5.019-1.949 9.138-3.554 9.154-3.568.06-.051-2.228-7.011-2.316-7.045-.052-.02-5.732 2.337-12.624 5.238l-12.53 5.275-.023 3.643-.023 3.643 12.512 5.28c6.882 2.905 12.57 5.275 12.641 5.267.089-.01.481-1.107 1.26-3.518zm128.575-1.74 12.569-5.288-.023-3.642-.023-3.642-12.529-5.274c-6.89-2.9-12.57-5.273-12.621-5.272-.086.002-2.388 7.015-2.322 7.074.017.015 4.14 1.623 9.164 3.573 6.301 2.447 9.083 3.566 8.971 3.609-5.633 2.183-18.11 7.047-18.131 7.069-.026.026 1.972 6.312 2.184 6.87.045.117.106.212.136.212.031 0 5.712-2.38 12.625-5.288z"/></svg>